<?xml version="1.0" encoding="UTF-8" standalone="no"?>
<svg
   viewBox="0 0 100 100"
   version="1.1"
   id="svg24"
   sodipodi:docname="logo.svg"
   width="100"
   height="100"
   inkscape:version="1.1.2 (0a00cf5339, 2022-02-04, custom)"
   xmlns:inkscape="http://www.inkscape.org/namespaces/inkscape"
   xmlns:sodipodi="http://sodipodi.sourceforge.net/DTD/sodipodi-0.dtd"
   xmlns="http://www.w3.org/2000/svg"
   xmlns:svg="http://www.w3.org/2000/svg">
  <defs
     id="defs28" />
  <sodipodi:namedview
     id="namedview26"
     pagecolor="#ffffff"
     bordercolor="#666666"
     borderopacity="1.0"
     inkscape:pageshadow="2"
     inkscape:pageopacity="0.0"
     inkscape:pagecheckerboard="0"
     showgrid="false"
     inkscape:zoom="5.6252026"
     inkscape:cx="1.8665994"
     inkscape:cy="72.708492"
     inkscape:window-width="1918"
     inkscape:window-height="1179"
     inkscape:window-x="0"
     inkscape:window-y="0"
     inkscape:window-maximized="1"
     inkscape:current-layer="layer4" />
  <g
     inkscape:groupmode="layer"
     id="layer4"
     inkscape:label="sun"
     style="display:inline">
    <path
       fill="#f4900c"
       d="m 50,100 c -1.095507,0 -2.092696,-0.612359 -2.587078,-1.587077 l -5.05618,-9.983146 -8.494383,7.292135 c -0.536516,0.452247 -1.207866,0.693819 -1.887641,0.693819 -0.373595,0 -0.75,-0.07022 -1.106741,-0.219096 -1.008427,-0.415736 -1.702248,-1.367982 -1.780899,-2.452253 L 28.233145,82.575844 17.592696,86.0618 c -0.294944,0.0955 -0.598315,0.143268 -0.901686,0.143268 -0.758427,0 -1.494382,-0.297754 -2.050562,-0.851124 -0.769663,-0.766863 -1.042134,-1.91293 -0.702247,-2.952256 L 17.421347,71.76124 6.264044,70.915732 C 5.176966,70.828652 4.224718,70.143262 3.806179,69.134833 3.390449,68.120789 3.573034,66.966294 4.283707,66.137643 L 11.570224,57.64326 1.587078,52.58708 C 0.612359,52.092698 0,51.089891 0,50.000002 0,48.910115 0.612359,47.907307 1.587078,47.412924 l 9.983146,-5.05618 -7.286517,-8.494382 C 3.575842,33.03371 3.390449,31.873598 3.806179,30.86798 4.224718,29.859553 5.174156,29.165733 6.264044,29.087081 l 11.157303,-0.853934 -3.483146,-10.64045 c -0.339887,-1.039326 -0.06742,-2.176967 0.702247,-2.952247 0.55618,-0.550562 1.292135,-0.845506 2.050562,-0.845506 0.303371,0 0.606742,0.04775 0.901686,0.143258 l 10.640449,3.483146 0.853933,-11.157304 c 0.08146,-1.089888 0.772472,-2.039326 1.780899,-2.457865 0.356741,-0.146061 0.733146,-0.219101 1.106741,-0.219101 0.679775,0 1.351125,0.235955 1.887641,0.696629 l 8.494383,7.286517 5.05618,-9.983146 C 47.907304,0.612359 48.904493,0 50,0 c 1.089889,0 2.092696,0.612359 2.58427,1.587078 l 5.061797,9.983146 8.494383,-7.286517 c 0.533707,-0.460674 1.210674,-0.696629 1.88483,-0.696629 0.379215,0 0.752812,0.07304 1.112361,0.219101 1.005619,0.418539 1.693821,1.367977 1.780898,2.457865 l 0.851124,11.157304 10.632023,-3.483146 c 0.294944,-0.09831 0.603932,-0.143258 0.901686,-0.143258 0.758426,0 1.499998,0.294944 2.047752,0.845506 0.775281,0.77528 1.047753,1.91573 0.707866,2.952247 l -3.485955,10.64045 11.168539,0.853933 c 1.08427,0.08146 2.036516,0.772471 2.452247,1.780898 0.41573,1.005618 0.235953,2.165731 -0.47472,2.994382 l -7.292133,8.494383 9.983146,5.05618 C 99.387641,47.910115 100,48.910113 100,50.000001 c 0,1.089889 -0.612359,2.089887 -1.587077,2.587078 l -9.983146,5.05618 7.292135,8.494382 c 0.710672,0.828652 0.890447,1.983146 0.474717,2.997191 -0.41573,1.005619 -1.367976,1.693822 -2.460674,1.780899 L 82.575844,71.761238 86.0618,82.401687 c 0.339886,1.042133 0.06741,2.182583 -0.707866,2.952247 -0.547754,0.55337 -1.292136,0.851123 -2.047753,0.851123 -0.297753,0 -0.606743,-0.04776 -0.901687,-0.143267 l -10.632021,-3.485956 -0.851125,11.16011 c -0.08706,1.092699 -0.772471,2.044945 -1.780898,2.460675 -0.362358,0.148885 -0.735955,0.219096 -1.11236,0.219096 -0.674157,0 -1.348314,-0.241572 -1.884832,-0.693818 l -8.494383,-7.292136 -5.061797,9.983146 C 52.092696,99.387626 51.089889,99.999985 50,99.999985 Z"
       id="path42"
       style="stroke-width:2.809" />
    <path
       fill="#ffcc4d"
       d="m 86.516855,50.000001 c 0,20.165731 -16.351125,36.516854 -36.516855,36.516854 -20.165731,0 -36.516855,-16.348315 -36.516855,-36.516854 0,-20.16854 16.351124,-36.516855 36.516855,-36.516855 20.16573,0 36.516855,16.351125 36.516855,36.516855"
       id="path44"
       style="stroke-width:2.809" />
  </g>
  <g
     inkscape:groupmode="layer"
     id="layer1"
     inkscape:label="barrel"
     style="display:inline">
    <path
       fill="#3b88c3"
       d="M 32.712246,61.001297 H 67.287753 V 75.145823 H 32.712246 Z m 0,-17.287752 H 67.287753 V 57.858069 H 32.712246 Z m 0,-17.287754 H 67.287753 V 42.14193 H 32.712246 Z"
       id="path18"
       style="stroke-width:1.57161" />
    <path
       fill="#226699"
       d="m 68.859367,26.705538 c 0,0.713513 -0.578354,1.291867 -1.291866,1.291867 H 32.432499 c -0.713512,0 -1.291866,-0.578354 -1.291866,-1.291867 v -0.559494 c 0,-0.713513 0.578354,-1.291867 1.291866,-1.291867 h 35.133429 c 0.715085,0 1.293439,0.578354 1.293439,1.291867 z m 0,17.287754 c 0,0.713512 -0.578354,1.291866 -1.291866,1.291866 H 32.432499 c -0.713512,0 -1.291866,-0.578354 -1.291866,-1.291866 v -0.557923 c 0,-0.715085 0.578354,-1.293439 1.291866,-1.293439 h 35.133429 c 0.715085,0 1.293439,0.578354 1.293439,1.291867 z m 0,15.716139 c 0,0.713512 -0.578354,1.291866 -1.291866,1.291866 H 32.432499 c -0.713512,0 -1.291866,-0.578354 -1.291866,-1.291866 v -0.557923 c 0,-0.715085 0.578354,-1.293439 1.291866,-1.293439 h 35.133429 c 0.715085,0 1.293439,0.578354 1.293439,1.291867 z m 0,17.287753 c 0,0.713513 -0.578354,1.291867 -1.291866,1.291867 H 32.432499 c -0.713512,0 -1.291866,-0.578354 -1.291866,-1.291867 v -0.557923 c 0,-0.715084 0.578354,-1.293438 1.291866,-1.293438 h 35.133429 c 0.715085,0 1.293439,0.578354 1.293439,1.291867 z"
       id="path20"
       style="stroke-width:1.57161" />
    <path
       fill="#99aab5"
       d="m 62.572911,23.48373 c 0,0.755946 -0.614501,1.370447 -1.370447,1.370447 h -3.545561 c -0.755946,0 -1.370448,-0.614501 -1.370448,-1.370447 v -0.402333 c 0,-0.755947 0.614502,-1.370448 1.370448,-1.370448 h 3.545561 c 0.755946,0 1.370447,0.614501 1.370447,1.370448 z"
       id="path22"
       style="stroke-width:1.57161" />
  </g>
  <g
     inkscape:groupmode="layer"
     id="layer2"
     inkscape:label="price"
     style="display:inline">
    <path
       fill="#ffd983"
       d="M 62.198396,51.704021 49.863541,39.568324 c -0.553185,-0.55403 -1.279556,-0.627172 -2.005087,-0.627172 h -8.471806 c -1.55867,0 -2.423757,0.865094 -2.423757,2.423775 v 8.476072 c 0,0.723855 0.07482,1.44855 0.627167,2.000898 L 49.82571,64.176843 c 1.102165,1.101335 2.839908,1.101335 3.941233,0 l 8.456674,-8.481116 c 1.101326,-1.103015 1.076104,-2.890373 -0.02522,-3.991706 z M 42.361071,44.339372 c -0.491813,0.491817 -1.288803,0.491817 -1.780618,0 -0.491814,-0.491817 -0.492655,-1.288813 0,-1.780632 0.491815,-0.492657 1.288805,-0.491817 1.780618,0 0.491813,0.49266 0.492654,1.288815 0,1.780632 z"
       id="path30"
       style="stroke-width:0.840711" />
    <path
       fill="#d99e82"
       d="m 43.648193,41.271609 c -1.202211,-1.203061 -3.151811,-1.203061 -4.354022,0 -1.203052,1.20222 -1.203052,3.151834 0,4.354895 1.202211,1.20222 3.151811,1.20222 4.354863,0 1.202212,-1.203061 1.201371,-3.151835 -8.34e-4,-4.354895 z m -1.286281,3.068604 c -0.491814,0.491817 -1.289644,0.491817 -1.781459,0 -0.491814,-0.491817 -0.492655,-1.289654 0,-1.781473 0.491815,-0.493498 1.289645,-0.491817 1.781459,0 0.491813,0.491819 0.492654,1.288815 0,1.781473 z"
       id="path32"
       style="stroke-width:0.840711" />
    <path
       fill="#c1694f"
       d="m 42.433371,43.565916 c -0.328716,0.328719 -0.860042,0.328719 -1.1896,0 -0.328717,-0.328719 -0.327876,-0.86005 0,-1.188769 l 7.133399,-7.133452 c 0.328717,-0.328719 0.860043,-0.328719 1.189601,0 0.328717,0.328719 0.327876,0.860049 0,1.188768 z"
       id="path34"
       style="stroke-width:0.840711" />
  </g>
</svg>
