<?xml version="1.0" encoding="UTF-8"?>
<svg version="1.1" viewBox="0 0 100 100" xmlns="http://www.w3.org/2000/svg">
<g stroke-width="2.809">
<path d="m50 100c-1.0955 0-2.0927-0.61236-2.5871-1.5871l-5.0562-9.9831-8.4944 7.2921c-0.53652 0.45225-1.2079 0.69382-1.8876 0.69382-0.3736 0-0.75-0.07022-1.1067-0.2191-1.0084-0.41574-1.7022-1.368-1.7809-2.4523l-0.85393-11.169-10.64 3.486c-0.29494 0.0955-0.59832 0.14327-0.90169 0.14327-0.75843 0-1.4944-0.29775-2.0506-0.85112-0.76966-0.76686-1.0421-1.9129-0.70225-2.9523l3.4831-10.64-11.157-0.84551c-1.0871-0.08708-2.0393-0.77247-2.4579-1.7809-0.41573-1.014-0.23314-2.1685 0.47753-2.9972l7.2865-8.4944-9.9831-5.0562c-0.97472-0.49438-1.5871-1.4972-1.5871-2.5871 0-1.0899 0.61236-2.0927 1.5871-2.5871l9.9831-5.0562-7.2865-8.4944c-0.70786-0.82865-0.89326-1.9888-0.47753-2.9944 0.41854-1.0084 1.368-1.7022 2.4579-1.7809l11.157-0.85393-3.4831-10.64c-0.33989-1.0393-0.06742-2.177 0.70225-2.9522 0.55618-0.55056 1.2921-0.84551 2.0506-0.84551 0.30337 0 0.60674 0.04775 0.90169 0.14326l10.64 3.4831 0.85393-11.157c0.08146-1.0899 0.77247-2.0393 1.7809-2.4579 0.35674-0.14606 0.73315-0.2191 1.1067-0.2191 0.67978 0 1.3511 0.23596 1.8876 0.69663l8.4944 7.2865 5.0562-9.9831c0.49438-0.97472 1.4916-1.5871 2.5871-1.5871 1.0899 0 2.0927 0.61236 2.5843 1.5871l5.0618 9.9831 8.4944-7.2865c0.53371-0.46067 1.2107-0.69663 1.8848-0.69663 0.37922 0 0.75281 0.07304 1.1124 0.2191 1.0056 0.41854 1.6938 1.368 1.7809 2.4579l0.85112 11.157 10.632-3.4831c0.29494-0.09831 0.60393-0.14326 0.90169-0.14326 0.75843 0 1.5 0.29494 2.0478 0.84551 0.77528 0.77528 1.0478 1.9157 0.70787 2.9522l-3.486 10.64 11.169 0.85393c1.0843 0.08146 2.0365 0.77247 2.4522 1.7809 0.41573 1.0056 0.23595 2.1657-0.47472 2.9944l-7.2921 8.4944 9.9831 5.0562c0.97753 0.49719 1.5899 1.4972 1.5899 2.5871 0 1.0899-0.61236 2.0899-1.5871 2.5871l-9.9831 5.0562 7.2921 8.4944c0.71067 0.82865 0.89045 1.9831 0.47472 2.9972-0.41573 1.0056-1.368 1.6938-2.4607 1.7809l-11.16 0.84551 3.486 10.64c0.33989 1.0421 0.06741 2.1826-0.70787 2.9522-0.54775 0.55337-1.2921 0.85112-2.0478 0.85112-0.29775 0-0.60674-0.04776-0.90169-0.14327l-10.632-3.486-0.85112 11.16c-0.08706 1.0927-0.77247 2.0449-1.7809 2.4607-0.36236 0.14888-0.73596 0.2191-1.1124 0.2191-0.67416 0-1.3483-0.24157-1.8848-0.69382l-8.4944-7.2921-5.0618 9.9831c-0.49438 0.97472-1.4972 1.5871-2.5871 1.5871z" fill="#f4900c"/>
<path d="m86.517 50c0 20.166-16.351 36.517-36.517 36.517-20.166 0-36.517-16.348-36.517-36.517 0-20.169 16.351-36.517 36.517-36.517 20.166 0 36.517 16.351 36.517 36.517" fill="#ffcc4d"/>
</g>
<g stroke-width="1.5716">
<path d="m32.712 61.001h34.576v14.145h-34.576zm0-17.288h34.576v14.145h-34.576zm0-17.288h34.576v15.716h-34.576z" fill="#3b88c3"/>
<path d="m68.859 26.706c0 0.71351-0.57835 1.2919-1.2919 1.2919h-35.135c-0.71351 0-1.2919-0.57835-1.2919-1.2919v-0.55949c0-0.71351 0.57835-1.2919 1.2919-1.2919h35.133c0.71508 0 1.2934 0.57835 1.2934 1.2919zm0 17.288c0 0.71351-0.57835 1.2919-1.2919 1.2919h-35.135c-0.71351 0-1.2919-0.57835-1.2919-1.2919v-0.55792c0-0.71508 0.57835-1.2934 1.2919-1.2934h35.133c0.71508 0 1.2934 0.57835 1.2934 1.2919zm0 15.716c0 0.71351-0.57835 1.2919-1.2919 1.2919h-35.135c-0.71351 0-1.2919-0.57835-1.2919-1.2919v-0.55792c0-0.71508 0.57835-1.2934 1.2919-1.2934h35.133c0.71508 0 1.2934 0.57835 1.2934 1.2919zm0 17.288c0 0.71351-0.57835 1.2919-1.2919 1.2919h-35.135c-0.71351 0-1.2919-0.57835-1.2919-1.2919v-0.55792c0-0.71508 0.57835-1.2934 1.2919-1.2934h35.133c0.71508 0 1.2934 0.57835 1.2934 1.2919z" fill="#269"/>
<path d="m62.573 23.484c0 0.75595-0.6145 1.3704-1.3704 1.3704h-3.5456c-0.75595 0-1.3704-0.6145-1.3704-1.3704v-0.40233c0-0.75595 0.6145-1.3704 1.3704-1.3704h3.5456c0.75595 0 1.3704 0.6145 1.3704 1.3704z" fill="#99aab5"/>
</g>
<g stroke-width=".84071">
<path d="m62.198 51.704-12.335-12.136c-0.55318-0.55403-1.2796-0.62717-2.0051-0.62717h-8.4718c-1.5587 0-2.4238 0.86509-2.4238 2.4238v8.4761c0 0.72386 0.07482 1.4486 0.62717 2.0009l12.236 12.335c1.1022 1.1013 2.8399 1.1013 3.9412 0l8.4567-8.4811c1.1013-1.103 1.0761-2.8904-0.02522-3.9917zm-19.837-7.3646c-0.49181 0.49182-1.2888 0.49182-1.7806 0-0.49181-0.49182-0.49266-1.2888 0-1.7806 0.49182-0.49266 1.2888-0.49182 1.7806 0 0.49181 0.49266 0.49265 1.2888 0 1.7806z" fill="#ffd983"/>
<path d="m43.648 41.272c-1.2022-1.2031-3.1518-1.2031-4.354 0-1.2031 1.2022-1.2031 3.1518 0 4.3549 1.2022 1.2022 3.1518 1.2022 4.3549 0 1.2022-1.2031 1.2014-3.1518-8.34e-4 -4.3549zm-1.2863 3.0686c-0.49181 0.49182-1.2896 0.49182-1.7815 0-0.49181-0.49182-0.49266-1.2897 0-1.7815 0.49182-0.4935 1.2896-0.49182 1.7815 0 0.49181 0.49182 0.49265 1.2888 0 1.7815z" fill="#d99e82"/>
<path d="m42.433 43.566c-0.32872 0.32872-0.86004 0.32872-1.1896 0-0.32872-0.32872-0.32788-0.86005 0-1.1888l7.1334-7.1335c0.32872-0.32872 0.86004-0.32872 1.1896 0 0.32872 0.32872 0.32788 0.86005 0 1.1888z" fill="#c1694f"/>
</g>
</svg>
